<svg width="70" height="21" viewBox="0 0 70 21" fill="none" xmlns="http://www.w3.org/2000/svg">
<rect width="5.01347" height="8.83463" rx="1.05772" transform="matrix(0.710255 0.703944 -0.703789 0.710409 9.85669 2.28564)" fill="white"/>
<g filter="url(#filter0_d_343_195)">
<rect x="8.15948" y="20.0903" width="5.01329" height="8.81507" rx="1.05772" transform="rotate(-135.262 8.15948 20.0903)" fill="white"/>
</g>
<rect width="5.03152" height="3.74924" rx="1.05772" transform="matrix(0.710255 0.703944 -0.703789 0.710409 2.76874 9.46875)" fill="white"/>
<rect x="15.2385" y="12.9058" width="5.03519" height="3.7762" rx="1.05772" transform="rotate(-135.262 15.2385 12.9058)" fill="white"/>
<path d="M22.0382 14.9111V6.86921H24.2005V8.27235H24.2842C24.4308 7.77322 24.6769 7.39626 25.0225 7.14146C25.368 6.88317 25.7659 6.75402 26.2162 6.75402C26.3279 6.75402 26.4483 6.761 26.5774 6.77496C26.7066 6.78893 26.82 6.80812 26.9178 6.83256V8.81162C26.8131 8.78021 26.6682 8.75229 26.4832 8.72785C26.2982 8.70342 26.1289 8.69121 25.9754 8.69121C25.6473 8.69121 25.3541 8.76276 25.0958 8.90587C24.841 9.04548 24.6385 9.24095 24.4884 9.49226C24.3418 9.74357 24.2685 10.0333 24.2685 10.3614V14.9111H22.0382ZM31.3615 15.0682C30.5343 15.0682 29.8222 14.9007 29.2254 14.5656C28.632 14.227 28.1748 13.7488 27.8536 13.131C27.5325 12.5097 27.372 11.775 27.372 10.9268C27.372 10.0996 27.5325 9.37358 27.8536 8.7488C28.1748 8.12401 28.6268 7.6371 29.2097 7.28806C29.7961 6.93901 30.4837 6.76449 31.2725 6.76449C31.803 6.76449 32.2969 6.85001 32.7542 7.02104C33.2149 7.18858 33.6163 7.44163 33.9584 7.78021C34.3039 8.11878 34.5727 8.54461 34.7647 9.0577C34.9566 9.5673 35.0526 10.1642 35.0526 10.8483V11.4609H28.262V10.0786H32.9531C32.9531 9.75753 32.8833 9.47306 32.7437 9.22524C32.6041 8.97742 32.4104 8.7837 32.1626 8.64408C31.9182 8.50098 31.6338 8.42942 31.3091 8.42942C30.9706 8.42942 30.6704 8.50796 30.4086 8.66503C30.1503 8.81861 29.9479 9.02629 29.8013 9.28807C29.6547 9.54636 29.5796 9.83432 29.5762 10.1519V11.4661C29.5762 11.864 29.6495 12.2078 29.7961 12.4975C29.9461 12.7872 30.1573 13.0106 30.4296 13.1677C30.7018 13.3247 31.0247 13.4033 31.3982 13.4033C31.646 13.4033 31.8729 13.3684 32.0788 13.2986C32.2847 13.2288 32.461 13.124 32.6076 12.9844C32.7542 12.8448 32.8659 12.6738 32.9427 12.4713L35.0055 12.6075C34.9008 13.1031 34.6861 13.5359 34.3615 13.9059C34.0404 14.2724 33.625 14.5586 33.1154 14.7645C32.6093 14.967 32.0247 15.0682 31.3615 15.0682ZM40.1417 15.0682C39.3179 15.0682 38.6094 14.8937 38.016 14.5446C37.4261 14.1921 36.9724 13.7034 36.6547 13.0787C36.3406 12.4539 36.1835 11.7349 36.1835 10.9216C36.1835 10.0978 36.3423 9.37533 36.66 8.75403C36.9811 8.12925 37.4366 7.64233 38.0265 7.29329C38.6163 6.94076 39.3179 6.76449 40.1312 6.76449C40.8328 6.76449 41.4471 6.89189 41.9741 7.14669C42.5012 7.40149 42.9183 7.75926 43.2254 8.22C43.5326 8.68073 43.7019 9.22175 43.7333 9.84304H41.6286C41.5692 9.44165 41.4122 9.11878 41.1574 8.87445C40.9061 8.62663 40.5762 8.50272 40.1678 8.50272C39.8223 8.50272 39.5204 8.59696 39.2621 8.78545C39.0073 8.97044 38.8083 9.24095 38.6652 9.59697C38.5221 9.95299 38.4505 10.3841 38.4505 10.8902C38.4505 11.4033 38.5204 11.8396 38.66 12.1991C38.8031 12.5586 39.0038 12.8326 39.2621 13.0211C39.5204 13.2096 39.8223 13.3038 40.1678 13.3038C40.4226 13.3038 40.6513 13.2514 40.8537 13.1467C41.0596 13.042 41.2289 12.8902 41.3616 12.6912C41.4977 12.4888 41.5867 12.2462 41.6286 11.9635H43.7333C43.6984 12.5778 43.5309 13.1188 43.2307 13.5865C42.934 14.0507 42.5239 14.4137 42.0003 14.6755C41.4767 14.9373 40.8572 15.0682 40.1417 15.0682ZM48.7948 15.0682C47.9816 15.0682 47.2783 14.8954 46.6849 14.5499C46.095 14.2008 45.6395 13.7157 45.3184 13.0944C44.9973 12.4696 44.8367 11.7453 44.8367 10.9216C44.8367 10.0909 44.9973 9.36486 45.3184 8.74356C45.6395 8.11878 46.095 7.63361 46.6849 7.28806C47.2783 6.93901 47.9816 6.76449 48.7948 6.76449C49.6081 6.76449 50.3097 6.93901 50.8996 7.28806C51.4929 7.63361 51.9502 8.11878 52.2713 8.74356C52.5924 9.36486 52.753 10.0909 52.753 10.9216C52.753 11.7453 52.5924 12.4696 52.2713 13.0944C51.9502 13.7157 51.4929 14.2008 50.8996 14.5499C50.3097 14.8954 49.6081 15.0682 48.7948 15.0682ZM48.8053 13.3404C49.1753 13.3404 49.4842 13.2357 49.732 13.0263C49.9798 12.8134 50.1666 12.5237 50.2922 12.1572C50.4214 11.7907 50.486 11.3736 50.486 10.9059C50.486 10.4382 50.4214 10.0211 50.2922 9.65456C50.1666 9.28807 49.9798 8.99836 49.732 8.78545C49.4842 8.57253 49.1753 8.46607 48.8053 8.46607C48.4318 8.46607 48.1177 8.57253 47.8629 8.78545C47.6116 8.99836 47.4214 9.28807 47.2922 9.65456C47.1666 10.0211 47.1037 10.4382 47.1037 10.9059C47.1037 11.3736 47.1666 11.7907 47.2922 12.1572C47.4214 12.5237 47.6116 12.8134 47.8629 13.0263C48.1177 13.2357 48.4318 13.3404 48.8053 13.3404ZM54.2032 14.9111V6.86921H56.3656V8.27235H56.4493C56.5959 7.77322 56.842 7.39626 57.1876 7.14146C57.5331 6.88317 57.931 6.75402 58.3813 6.75402C58.493 6.75402 58.6134 6.761 58.7425 6.77496C58.8717 6.78893 58.9851 6.80812 59.0829 6.83256V8.81162C58.9781 8.78021 58.8333 8.75229 58.6483 8.72785C58.4633 8.70342 58.294 8.69121 58.1404 8.69121C57.8123 8.69121 57.5191 8.76276 57.2609 8.90587C57.0061 9.04548 56.8036 9.24095 56.6535 9.49226C56.5069 9.74357 56.4336 10.0333 56.4336 10.3614V14.9111H54.2032ZM62.825 15.042C62.2142 15.042 61.661 14.885 61.1653 14.5708C60.6732 14.2532 60.2822 13.7872 59.9925 13.1729C59.7063 12.5551 59.5632 11.7977 59.5632 10.9006C59.5632 9.97917 59.7116 9.21302 60.0083 8.6022C60.3049 7.98789 60.6994 7.5289 61.1915 7.22523C61.6871 6.91807 62.2299 6.76449 62.8198 6.76449C63.27 6.76449 63.6453 6.84128 63.9454 6.99486C64.2491 7.14495 64.4934 7.33343 64.6784 7.56031C64.8669 7.7837 65.01 8.00359 65.1078 8.22H65.1758V4.18856H67.401V14.9111H65.202V13.6232H65.1078C65.003 13.8466 64.8547 14.0682 64.6627 14.2881C64.4742 14.5045 64.2282 14.6843 63.9245 14.8274C63.6243 14.9705 63.2578 15.042 62.825 15.042ZM63.5318 13.2671C63.8913 13.2671 64.195 13.1694 64.4428 12.9739C64.6941 12.775 64.8861 12.4975 65.0187 12.1415C65.1549 11.7855 65.2229 11.3684 65.2229 10.8902C65.2229 10.412 65.1566 9.99662 65.024 9.64409C64.8913 9.29156 64.6994 9.0193 64.4481 8.82733C64.1968 8.63536 63.8913 8.53937 63.5318 8.53937C63.1653 8.53937 62.8564 8.63885 62.6051 8.8378C62.3538 9.03676 62.1636 9.3125 62.0344 9.66503C61.9053 10.0176 61.8407 10.4259 61.8407 10.8902C61.8407 11.3579 61.9053 11.7715 62.0344 12.131C62.1671 12.487 62.3573 12.7663 62.6051 12.9687C62.8564 13.1677 63.1653 13.2671 63.5318 13.2671Z" fill="white"/>
<defs>
<filter id="filter0_d_343_195" x="4.91064" y="10.7383" width="9.14121" height="9.16578" filterUnits="userSpaceOnUse" color-interpolation-filters="sRGB">
<feFlood flood-opacity="0" result="BackgroundImageFix"/>
<feColorMatrix in="SourceAlpha" type="matrix" values="0 0 0 0 0 0 0 0 0 0 0 0 0 0 0 0 0 0 127 0" result="hardAlpha"/>
<feOffset dy="0.125859"/>
<feGaussianBlur stdDeviation="0.0629297"/>
<feComposite in2="hardAlpha" operator="out"/>
<feColorMatrix type="matrix" values="0 0 0 0 0 0 0 0 0 0 0 0 0 0 0 0 0 0 0.25 0"/>
<feBlend mode="normal" in2="BackgroundImageFix" result="effect1_dropShadow_343_195"/>
<feBlend mode="normal" in="SourceGraphic" in2="effect1_dropShadow_343_195" result="shape"/>
</filter>
</defs>
</svg>
