<svg width="215" height="177" viewBox="0 0 215 177" fill="none" xmlns="http://www.w3.org/2000/svg">
<g clip-path="url(#clip0_194_279)">
<path d="M213.802 11.1549H0.309859C0.227679 11.1549 0.148865 11.1223 0.0907552 11.0642C0.0326455 11.0061 0 10.9273 0 10.8451C0 10.7629 0.0326455 10.6841 0.0907552 10.626C0.148865 10.5679 0.227679 10.5352 0.309859 10.5352H213.802C213.885 10.5352 213.963 10.5679 214.022 10.626C214.08 10.6841 214.112 10.7629 214.112 10.8451C214.112 10.9273 214.08 11.0061 214.022 11.0642C213.963 11.1223 213.885 11.1549 213.802 11.1549Z" fill="#CACACA"/>
<path d="M7.28412 6.81689C9.16655 6.81689 10.6926 5.29088 10.6926 3.40844C10.6926 1.52601 9.16655 0 7.28412 0C5.40168 0 3.87567 1.52601 3.87567 3.40844C3.87567 5.29088 5.40168 6.81689 7.28412 6.81689Z" fill="white"/>
<path d="M19.0587 6.81689C20.9412 6.81689 22.4672 5.29088 22.4672 3.40844C22.4672 1.52601 20.9412 0 19.0587 0C17.1763 0 15.6503 1.52601 15.6503 3.40844C15.6503 5.29088 17.1763 6.81689 19.0587 6.81689Z" fill="white"/>
<path d="M30.8334 6.81689C32.7158 6.81689 34.2418 5.29088 34.2418 3.40844C34.2418 1.52601 32.7158 0 30.8334 0C28.9509 0 27.4249 1.52601 27.4249 3.40844C27.4249 5.29088 28.9509 6.81689 30.8334 6.81689Z" fill="white"/>
<path d="M134.111 42.7031H80.0013C79.3254 42.7031 78.6771 42.4346 78.1991 41.9566C77.7212 41.4786 77.4527 40.8304 77.4527 40.1544C77.4527 39.4785 77.7212 38.8302 78.1991 38.3523C78.6771 37.8743 79.3254 37.6058 80.0013 37.6058H134.111C134.787 37.6058 135.435 37.8743 135.913 38.3523C136.391 38.8302 136.66 39.4785 136.66 40.1544C136.66 40.8304 136.391 41.4786 135.913 41.9566C135.435 42.4346 134.787 42.7031 134.111 42.7031Z" fill="white"/>
<path d="M125.387 33.9789H88.7255C88.0501 33.9781 87.4025 33.7093 86.9252 33.2314C86.4478 32.7535 86.1797 32.1057 86.1797 31.4302C86.1797 30.7548 86.4478 30.1069 86.9252 29.629C87.4025 29.1512 88.0501 28.8823 88.7255 28.8816H125.387C126.063 28.8816 126.711 29.1501 127.189 29.628C127.667 30.106 127.935 30.7543 127.935 31.4302C127.935 32.1061 127.667 32.7544 127.189 33.2324C126.711 33.7103 126.063 33.9789 125.387 33.9789Z" fill="white"/>
<path d="M38.3395 114.718C50.832 114.718 60.9592 104.591 60.9592 92.0988C60.9592 79.6063 50.832 69.4791 38.3395 69.4791C25.847 69.4791 15.7198 79.6063 15.7198 92.0988C15.7198 104.591 25.847 114.718 38.3395 114.718Z" fill="white"/>
<path d="M184.593 114.718C197.085 114.718 207.212 104.591 207.212 92.0988C207.212 79.6063 197.085 69.4791 184.593 69.4791C172.1 69.4791 161.973 79.6063 161.973 92.0988C161.973 104.591 172.1 114.718 184.593 114.718Z" fill="white"/>
<path d="M107.128 114.718C119.621 114.718 129.748 104.591 129.748 92.0988C129.748 79.6063 119.621 69.4791 107.128 69.4791C94.6356 69.4791 84.5084 79.6063 84.5084 92.0988C84.5084 104.591 94.6356 114.718 107.128 114.718Z" fill="white"/>
<path d="M195.586 101.902C193.804 100.963 191.943 100.18 190.026 99.5622L189.781 96.8572L179.864 95.7887L178.603 99.2462L175.044 100.582C174.917 100.63 174.796 100.693 174.683 100.77H174.679C174.096 100.819 173.535 101.013 173.046 101.334C172.715 101.546 172.42 101.81 172.174 102.117C172.655 102.482 173.155 102.82 173.671 103.144L173.694 103.155C173.84 103.246 173.991 103.336 174.141 103.422C174.412 103.584 174.691 103.738 174.969 103.885L175.146 103.975C175.552 104.186 175.966 104.385 176.391 104.57C176.478 104.607 176.572 104.645 176.658 104.683C176.666 104.686 176.67 104.686 176.677 104.69C176.877 104.773 177.076 104.852 177.279 104.927C177.946 105.182 178.627 105.401 179.318 105.582C181.082 106.052 182.899 106.29 184.724 106.289C185.39 106.289 186.049 106.259 186.7 106.195C188.187 106.058 189.655 105.761 191.079 105.311C191.083 105.311 191.087 105.307 191.09 105.307C191.99 105.021 192.869 104.672 193.72 104.265C193.724 104.261 193.731 104.261 193.735 104.258C193.927 104.167 194.111 104.069 194.299 103.975L194.39 103.93C194.54 103.851 194.691 103.772 194.841 103.689C195.218 103.483 195.586 103.264 195.951 103.031C196.053 102.971 196.151 102.907 196.252 102.839C196.395 102.745 196.538 102.647 196.677 102.546C196.327 102.32 195.962 102.106 195.586 101.902Z" fill="#2B66F6"/>
<path d="M184.433 94.0785C188.378 94.0785 191.576 90.8807 191.576 86.936C191.576 82.9913 188.378 79.7935 184.433 79.7935C180.488 79.7935 177.291 82.9913 177.291 86.936C177.291 90.8807 180.488 94.0785 184.433 94.0785Z" fill="#A0616A"/>
<path d="M179.638 83.457C180.377 84.332 181.628 84.5789 182.783 84.6801C185.127 84.8857 188.535 84.5523 190.826 84.0233C190.99 85.6081 190.544 87.3168 191.477 88.6204C191.915 87.0422 192.169 85.4188 192.236 83.7824C192.305 83.0804 192.214 82.3716 191.968 81.7104C191.836 81.379 191.614 81.0912 191.327 80.8796C191.04 80.668 190.7 80.5412 190.344 80.5135C190.876 80.1098 191.5 79.8434 192.159 79.7376L189.891 78.5979L190.474 78L186.368 77.7487L187.557 76.9932C185.767 76.7473 183.956 76.6901 182.155 76.8227C181.318 76.8843 180.443 77.0021 179.765 77.4869C179.087 77.9717 178.695 78.9352 179.116 79.6469C178.589 79.7335 178.093 79.9531 177.675 80.2849C177.257 80.6168 176.93 81.05 176.726 81.5435C176.468 82.3278 176.406 83.1633 176.545 83.9772C176.699 85.283 177.003 86.5669 177.449 87.8038L179.638 83.457Z" fill="#2F2E41"/>
<path d="M108.383 79.8518C110.051 79.8518 111.403 78.4997 111.403 76.8318C111.403 75.1639 110.051 73.8119 108.383 73.8119C106.715 73.8119 105.363 75.1639 105.363 76.8318C105.363 78.4997 106.715 79.8518 108.383 79.8518Z" fill="#2F2E41"/>
<path d="M105.763 78.4031C105.381 78.0462 105.098 77.5963 104.942 77.0974C104.786 76.5985 104.763 76.0677 104.873 75.5569C104.984 75.046 105.225 74.5727 105.574 74.183C105.922 73.7934 106.366 73.5009 106.861 73.334C106.446 73.3947 106.049 73.5411 105.693 73.7639C105.338 73.9867 105.033 74.2811 104.798 74.6283C104.563 74.9754 104.403 75.3678 104.327 75.7803C104.252 76.1929 104.264 76.6165 104.361 77.0243C104.459 77.4321 104.64 77.8151 104.894 78.1489C105.148 78.4827 105.469 78.76 105.835 78.9631C106.202 79.1662 106.607 79.2906 107.025 79.3284C107.443 79.3663 107.864 79.3168 108.261 79.183C107.813 79.2492 107.355 79.2135 106.923 79.0784C106.49 78.9433 106.094 78.7124 105.763 78.4029L105.763 78.4031Z" fill="#2F2E41"/>
<path d="M108.444 96.1824C113.343 96.1824 117.315 92.2105 117.315 87.311C117.315 82.4114 113.343 78.4396 108.444 78.4396C103.544 78.4396 99.5723 82.4114 99.5723 87.311C99.5723 92.2105 103.544 96.1824 108.444 96.1824Z" fill="#2F2E41"/>
<path d="M100.552 82.4265C102.08 80.7074 104.217 79.6494 106.511 79.4758C108.805 79.3022 111.076 80.0266 112.846 81.4962C112.774 81.4271 112.702 81.3576 112.627 81.2907C110.874 79.7208 108.57 78.9113 106.221 79.0404C103.871 79.1694 101.669 80.2265 100.099 81.9789C98.5295 83.7314 97.72 86.0358 97.8491 88.3851C97.9782 90.7344 99.0352 92.9362 100.788 94.5061C100.805 94.5212 100.821 94.5362 100.838 94.5512C100.914 94.6181 100.991 94.6814 101.068 94.7454C99.4013 93.1599 98.4158 90.9887 98.3195 88.6903C98.2232 86.3919 99.0236 84.146 100.552 82.4265H100.552Z" fill="#2F2E41"/>
<path d="M108.368 96.1072C111.524 96.1072 114.082 93.5491 114.082 90.3935C114.082 87.238 111.524 84.6799 108.368 84.6799C105.213 84.6799 102.655 87.238 102.655 90.3935C102.655 93.5491 105.213 96.1072 108.368 96.1072Z" fill="#A0616A"/>
<path d="M118.593 105.28V107.198C118.242 107.422 117.887 107.632 117.526 107.831C117.381 107.91 117.236 107.986 117.092 108.062L117.005 108.105C116.824 108.196 116.647 108.29 116.462 108.377C116.459 108.38 116.451 108.38 116.448 108.384C115.629 108.776 114.784 109.11 113.919 109.386C113.916 109.386 113.912 109.39 113.909 109.39C112.54 109.823 111.128 110.108 109.698 110.24C109.072 110.301 108.439 110.33 107.799 110.33C106.044 110.331 104.297 110.102 102.601 109.65C101.736 109.423 100.888 109.136 100.062 108.793C100.055 108.789 100.051 108.789 100.044 108.786C99.9609 108.749 99.8704 108.713 99.7873 108.677C99.3786 108.5 98.9806 108.308 98.59 108.105L98.4201 108.019C98.0039 107.798 97.5953 107.567 97.1938 107.317L97.1721 107.306C96.5538 106.921 95.9573 106.502 95.3852 106.051C95.0922 105.827 94.8101 105.592 94.5352 105.346C94.3905 105.223 94.2458 105.092 94.1084 104.966C93.58 104.478 93.0788 103.961 92.6072 103.418C92.6697 103.041 92.7617 102.67 92.8822 102.307L92.8857 102.304C92.9073 102.242 92.9327 102.181 92.9617 102.123C92.9816 102.071 93.0045 102.02 93.0304 101.971C93.6778 100.759 94.8499 100.459 96.304 100.394C97.1251 100.358 98.0329 100.397 98.9916 100.386C99.4979 100.383 100.022 100.365 100.547 100.318C103.857 100.018 103.256 98.0643 103.404 97.0117C103.553 95.9916 104.472 96.8742 104.533 96.9321L104.537 96.9357C106.409 97.8122 108.482 98.1755 110.541 97.9883C110.896 97.9449 111.25 97.9196 111.604 97.9087C112.538 97.8979 112.335 98.1655 112.013 98.3862C111.857 98.489 111.694 98.5809 111.525 98.6611C111.525 98.6611 111.377 99.5654 111.225 100.918C111.08 102.213 115.641 102.662 116.535 102.944H116.538C117.048 103.131 117.503 103.443 117.862 103.851C118.221 104.259 118.472 104.751 118.593 105.28Z" fill="#2B66F6"/>
<path d="M102.58 90.0177C102.829 90.0177 103.031 89.6475 103.031 89.1908C103.031 88.7342 102.829 88.364 102.58 88.364C102.331 88.364 102.129 88.7342 102.129 89.1908C102.129 89.6475 102.331 90.0177 102.58 90.0177Z" fill="#A0616A"/>
<path d="M114.158 90.0177C114.407 90.0177 114.609 89.6475 114.609 89.1908C114.609 88.7342 114.407 88.364 114.158 88.364C113.909 88.364 113.707 88.7342 113.707 89.1908C113.707 89.6475 113.909 90.0177 114.158 90.0177Z" fill="#A0616A"/>
<path d="M31.1027 93.6827L32.1881 97.4428L46.0593 97.1981L45.9377 90.3087C45.8415 84.8556 41.9876 80.1523 36.5345 80.2485C31.0814 80.3447 27.6141 84.9548 27.7103 90.408L28.5025 97.5078L30.7641 97.4679L31.1027 93.6827Z" fill="#2F2E41"/>
<path d="M37.1544 96.312C40.5916 96.312 43.378 93.5256 43.378 90.0884C43.378 86.6512 40.5916 83.8648 37.1544 83.8648C33.7172 83.8648 30.9308 86.6512 30.9308 90.0884C30.9308 93.5256 33.7172 96.312 37.1544 96.312Z" fill="#FFB6B6"/>
<path d="M43.9674 85.7183C43.9591 85.2418 43.81 84.7783 43.5387 84.3864C43.51 84.3461 43.4813 84.3087 43.4525 84.2713C43.2219 83.977 42.9263 83.7401 42.589 83.5789C42.2516 83.4177 41.8816 83.3367 41.5078 83.3422L37.0346 83.4227L32.5643 83.5004C31.9238 83.5132 31.3146 83.7792 30.8698 84.2402C30.425 84.7011 30.181 85.3195 30.191 85.9599L31.2554 88.1031L31.8681 89.3343L31.9688 89.2767C35.8379 87.102 37.42 87.0732 42.5406 89.0955L42.6441 89.1358L43.0498 88.0973L43.9702 85.7413L43.9674 85.7183Z" fill="#2F2E41"/>
<path d="M49.5424 99.7938C48.2075 98.462 43.6912 98.9913 43.6912 98.9913L31.7704 99.7421C29.1266 99.9377 26.7447 102.055 25.8818 102.912C26.0197 103.047 26.1608 103.18 26.3048 103.306C28.9539 105.661 32.2839 107.111 35.8123 107.446C39.3406 107.781 42.884 106.984 45.9291 105.17C47.2064 104.408 48.8406 103.494 49.8647 102.427C50.2703 102.007 50.5949 102.015 50.9545 101.555C50.6854 100.831 50.1902 100.214 49.5424 99.7938Z" fill="#2B66F6"/>
<path d="M38.3395 177C50.832 177 60.9592 166.873 60.9592 154.38C60.9592 141.888 50.832 131.761 38.3395 131.761C25.847 131.761 15.7198 141.888 15.7198 154.38C15.7198 166.873 25.847 177 38.3395 177Z" fill="white"/>
<path d="M184.593 177C197.085 177 207.212 166.873 207.212 154.38C207.212 141.888 197.085 131.761 184.593 131.761C172.1 131.761 161.973 141.888 161.973 154.38C161.973 166.873 172.1 177 184.593 177Z" fill="white"/>
<path d="M107.128 177C119.621 177 129.748 166.873 129.748 154.38C129.748 141.888 119.621 131.761 107.128 131.761C94.6356 131.761 84.5084 141.888 84.5084 154.38C84.5084 166.873 94.6356 177 107.128 177Z" fill="white"/>
<path d="M37.9692 157.625C41.4229 157.625 44.2226 154.825 44.2226 151.372C44.2226 147.918 41.4229 145.118 37.9692 145.118C34.5156 145.118 31.7159 147.918 31.7159 151.372C31.7159 154.825 34.5156 157.625 37.9692 157.625Z" fill="#FFB8B8"/>
<path d="M32.0532 153.328C32.0532 153.328 32.5845 152.395 32.4609 149.278C32.3374 146.161 37.0839 147.924 41.0502 147.627C45.0164 147.329 44.1768 152.83 44.1768 152.83C44.1768 152.83 44.4629 152.503 45.0755 149.848C45.6882 147.193 44.2972 144.547 44.2972 144.547C43.8875 141.757 41.6797 142.652 41.6797 142.652C42.743 143.065 42.5388 143.95 42.5388 143.95C41.6388 142.373 39.431 143.267 39.431 143.267C36.4864 141.419 33.5021 143.852 33.5021 143.852C29.945 144.66 32.0311 147.488 32.0311 147.488C28.4538 149.296 32.0532 153.328 32.0532 153.328Z" fill="#2F2E41"/>
<path d="M48.4035 166.048C46.6211 165.109 44.7605 164.326 42.8428 163.708L42.5981 161.003L32.6809 159.934L31.4205 163.392L27.8615 164.727C27.7341 164.776 27.6128 164.839 27.5001 164.916H27.4963C26.9136 164.965 26.3524 165.159 25.8637 165.48C25.5321 165.692 25.2373 165.956 24.9909 166.262C25.4725 166.627 25.9726 166.966 26.4881 167.29L26.5108 167.301C26.6575 167.391 26.8081 167.481 26.9584 167.568C27.2294 167.73 27.5078 167.884 27.7862 168.031L27.9631 168.121C28.3693 168.332 28.7832 168.531 29.2084 168.715C29.2949 168.753 29.389 168.791 29.4755 168.828C29.4829 168.832 29.4868 168.832 29.4941 168.836C29.6937 168.919 29.893 168.998 30.0961 169.073C30.7635 169.328 31.4442 169.546 32.1353 169.727C33.8989 170.198 35.7164 170.435 37.5416 170.435C38.2076 170.435 38.866 170.405 39.517 170.341C41.0042 170.203 42.4723 169.907 43.8962 169.457C43.8997 169.457 43.9039 169.453 43.9074 169.453C44.807 169.166 45.6857 168.818 46.5374 168.411C46.5409 168.407 46.5486 168.407 46.5524 168.403C46.7443 168.313 46.9286 168.215 47.1166 168.121L47.2069 168.076C47.3575 167.997 47.5081 167.918 47.6587 167.835C48.0348 167.628 48.4035 167.41 48.7681 167.177C48.8697 167.116 48.9677 167.053 49.0693 166.985C49.2122 166.891 49.3551 166.793 49.4944 166.691C49.1446 166.466 48.7797 166.251 48.4035 166.048Z" fill="#2B66F6"/>
<path d="M115.728 164.725L111.964 164.383L109.711 162.738C109.711 162.734 109.71 162.731 109.708 162.729L109.702 162.732L109.612 162.665L109.6 162.77L105.798 164.232L101.892 163.331L100.54 164.793L94.5199 166.79C94.2303 166.982 93.9757 167.223 93.767 167.502L93.7674 167.506C94.0202 167.703 94.28 167.898 94.5431 168.083C95.1398 168.514 95.7599 168.912 96.4006 169.275C97.9594 170.164 99.6261 170.849 101.36 171.313C101.517 171.356 101.674 171.397 101.831 171.435C102.104 171.502 102.38 171.566 102.656 171.618C103.214 171.734 103.779 171.825 104.351 171.891C105.191 171.993 106.036 172.044 106.883 172.042C107.461 172.042 108.034 172.02 108.601 171.975C109.596 171.895 110.585 171.745 111.56 171.525C111.594 171.516 111.629 171.51 111.664 171.499C113.157 171.157 114.607 170.652 115.99 169.993C116.202 169.891 116.414 169.787 116.623 169.679C117.138 169.415 117.638 169.13 118.123 168.824C118.489 168.598 118.847 168.356 119.196 168.106C119.411 167.952 119.623 167.795 119.832 167.633L119.81 167.585C119.438 166.793 118.866 166.113 118.15 165.611C117.434 165.109 116.599 164.804 115.728 164.725Z" fill="#2B66F6"/>
<path d="M112.132 145.936C111.693 145.501 111.197 145.127 110.659 144.823C107.33 142.986 103.694 142.954 100.682 144.733C99.9336 145.174 99.2499 145.717 98.6505 146.346C96.9608 148.11 96.0146 150.456 96.0081 152.898V160.142H114.955V152.157C114.955 150.017 113.778 147.541 112.132 145.936Z" fill="#2F2E41"/>
<path d="M105.107 159.944C108.886 159.944 111.95 156.88 111.95 153.101C111.95 149.322 108.886 146.258 105.107 146.258C101.328 146.258 98.2642 149.322 98.2642 153.101C98.2642 156.88 101.328 159.944 105.107 159.944Z" fill="#FFB8B8"/>
<path d="M112.126 146.89C112.112 146.744 112.061 146.605 111.977 146.485C111.893 146.365 111.779 146.269 111.647 146.207C107.365 144.207 103.022 144.259 98.7463 146.364H98.668L98.6417 146.471C97.7987 152.965 97.918 153.107 97.9702 153.165C98.0527 153.259 98.155 153.334 98.2697 153.383C98.375 153.43 98.4889 153.454 98.6039 153.453H108.365L108.388 153.343C108.502 152.761 108.647 152.187 108.824 151.622C109.213 152.189 109.571 152.777 109.897 153.383L109.938 153.453H111.836C111.872 153.453 111.908 153.45 111.943 153.445C112.139 153.421 112.32 153.327 112.452 153.18C112.504 153.125 112.626 152.991 112.126 146.89Z" fill="#2F2E41"/>
<path d="M189.709 163.847L189.463 161.11L179.417 160.028L178.145 163.529L174.539 164.881C174.408 164.929 174.283 164.993 174.168 165.071C173.447 165.136 172.763 165.414 172.201 165.87C172.284 165.938 172.366 166.003 172.448 166.068C172.465 166.085 172.485 166.099 172.502 166.113C172.731 166.292 172.966 166.467 173.204 166.634C173.267 166.68 173.329 166.725 173.394 166.768C173.917 167.138 174.457 167.481 175.015 167.796C175.547 168.099 176.094 168.379 176.655 168.635C177.685 169.105 178.753 169.489 179.848 169.782C180.001 169.824 180.154 169.864 180.307 169.901C180.573 169.966 180.842 170.028 181.111 170.079C181.655 170.193 182.206 170.281 182.763 170.346C183.582 170.445 184.406 170.494 185.23 170.493C185.794 170.493 186.352 170.471 186.905 170.428C187.875 170.35 188.839 170.203 189.789 169.989C189.823 169.98 189.857 169.975 189.891 169.963C191.345 169.63 192.759 169.138 194.106 168.496C194.313 168.397 194.52 168.295 194.724 168.19C195.225 167.932 195.713 167.654 196.186 167.357C196.356 167.252 196.523 167.144 196.69 167.031C194.12 165.303 190.389 164.065 189.709 163.847Z" fill="#2B66F6"/>
<path d="M184.047 158.295C188.043 158.295 191.282 155.056 191.282 151.061C191.282 147.066 188.043 143.827 184.047 143.827C180.052 143.827 176.813 147.066 176.813 151.061C176.813 155.056 180.052 158.295 184.047 158.295Z" fill="#A0616A"/>
<path d="M179.192 147.536C179.941 148.423 181.208 148.673 182.377 148.774C184.751 148.983 188.203 148.645 190.524 148.109C190.69 149.714 190.238 151.445 191.183 152.765C191.626 151.167 191.884 149.523 191.951 147.865C192.022 147.154 191.929 146.436 191.68 145.767C191.546 145.431 191.322 145.139 191.031 144.925C190.74 144.711 190.396 144.582 190.036 144.554C190.115 144.472 190.17 144.37 190.193 144.258C190.217 144.146 190.208 144.03 190.168 143.923C190.081 143.546 189.888 143.201 189.613 142.928C189.338 142.655 188.991 142.466 188.612 142.382L186.008 141.754C186.008 141.754 183.565 140.683 181.739 140.817C180.892 140.88 180.006 140.999 179.319 141.49C178.633 141.981 178.236 142.957 178.662 143.678C178.128 143.765 177.626 143.988 177.202 144.324C176.779 144.66 176.448 145.099 176.241 145.598C175.98 146.393 175.917 147.239 176.058 148.063C176.214 149.386 176.522 150.686 176.974 151.939L179.192 147.536Z" fill="#2F2E41"/>
<path d="M114.541 86.0211C114.322 85.3181 113.832 84.7308 113.18 84.3881C112.534 84.0524 111.843 83.8095 111.128 83.6666C109.879 83.3072 108.584 83.13 107.284 83.1405C105.988 83.2042 104.663 83.6516 103.782 84.605C102.901 85.5584 102.575 87.072 103.216 88.2003L103.145 88.4919C104.174 88.6142 105.215 88.4358 106.145 87.9782C107.074 87.5206 107.85 86.8035 108.38 85.9137C108.866 86.6815 109.557 87.2986 110.374 87.6958C111.191 88.093 112.103 88.2545 113.008 88.1622C113.296 88.1389 113.577 88.0581 113.834 87.9245C114.139 87.7234 114.371 87.4305 114.499 87.0883C114.626 86.7461 114.641 86.3723 114.541 86.0211Z" fill="#2F2E41"/>
<path d="M206.748 2.08483H198.381C198.217 2.08483 198.059 2.01954 197.943 1.90332C197.827 1.7871 197.762 1.62947 197.762 1.46512C197.762 1.30076 197.827 1.14313 197.943 1.02691C198.059 0.910689 198.217 0.845398 198.381 0.845398H206.748C206.912 0.845398 207.07 0.910689 207.186 1.02691C207.302 1.14313 207.367 1.30076 207.367 1.46512C207.367 1.62947 207.302 1.7871 207.186 1.90332C207.07 2.01954 206.912 2.08483 206.748 2.08483Z" fill="white"/>
<path d="M206.748 4.40878H198.381C198.217 4.40878 198.059 4.34349 197.943 4.22727C197.827 4.11105 197.762 3.95342 197.762 3.78906C197.762 3.6247 197.827 3.46707 197.943 3.35085C198.059 3.23463 198.217 3.16934 198.381 3.16934H206.748C206.912 3.16934 207.07 3.23463 207.186 3.35085C207.302 3.46707 207.367 3.6247 207.367 3.78906C207.367 3.95342 207.302 4.11105 207.186 4.22727C207.07 4.34349 206.912 4.40878 206.748 4.40878Z" fill="white"/>
<path d="M206.748 6.73272H198.381C198.217 6.73272 198.059 6.66743 197.943 6.55121C197.827 6.43499 197.762 6.27736 197.762 6.113C197.762 5.94864 197.827 5.79102 197.943 5.6748C198.059 5.55858 198.217 5.49329 198.381 5.49329H206.748C206.912 5.49329 207.07 5.55858 207.186 5.6748C207.302 5.79102 207.367 5.94864 207.367 6.113C207.367 6.27736 207.302 6.43499 207.186 6.55121C207.07 6.66743 206.912 6.73272 206.748 6.73272Z" fill="white"/>
</g>
<defs>
<clipPath id="clip0_194_279">
<rect width="214.112" height="177" fill="white"/>
</clipPath>
</defs>
</svg>
